<svg width="58" height="58" viewBox="0 0 58 58" fill="none" xmlns="http://www.w3.org/2000/svg">
<g id="pagination-default.svg" clip-path="url(#clip0_1_168)">
<g id="Blog---Single-post">
<g id="Gravity-Team---Single-Blog-Post">
<g id="featured-posts">
<g id="Group">
<path id="Oval" d="M29 0.491699C13.2552 0.491699 0.491528 13.2554 0.491528 29.0002C0.491528 44.745 13.2552 57.5086 29 57.5086C44.7448 57.5086 57.5085 44.745 57.5085 29.0002C57.5085 13.2554 44.7448 0.491699 29 0.491699ZM29 1.47475C44.2019 1.47475 56.5254 13.7983 56.5254 29.0002C56.5254 44.202 44.2019 56.5256 29 56.5256C13.7981 56.5256 1.47458 44.202 1.47458 29.0002C1.47458 13.7983 13.7981 1.47475 29 1.47475Z" fill="url(#paint0_linear_1_168)"/>
<g id="icon/arrow">
<g id="Group_2">
<path id="Fill-1" fill-rule="evenodd" clip-rule="evenodd" d="M38.86 28.8513L31.3101 20.9352C30.9581 20.575 30.3867 20.5332 29.9756 20.8988C29.6088 21.2244 29.5996 21.861 29.9388 22.2157L35.9994 28.5603H20.6048C20.0831 28.5603 19.661 28.9768 19.661 29.4916C19.661 30.0064 20.0831 30.4229 20.6048 30.4229H35.9994L29.9388 36.7675C29.5996 37.1222 29.6236 37.7425 29.9756 38.0844C30.348 38.4446 30.9636 38.4136 31.3101 38.048L38.86 30.1319C39.0812 29.9172 39.1217 29.7099 39.1254 29.4916C39.1254 29.277 38.9927 28.9896 38.86 28.8513Z" fill="url(#paint1_linear_1_168)"/>
</g>
</g>
</g>
</g>
</g>
</g>
</g>
<defs>
<linearGradient id="paint0_linear_1_168" x1="0.491528" y1="0.491699" x2="57.5085" y2="57.5086" gradientUnits="userSpaceOnUse">
<stop stop-color="#665DCD"/>
<stop offset="0.447624" stop-color="#5FA4E6"/>
<stop offset="1" stop-color="#D2AB67"/>
</linearGradient>
<linearGradient id="paint1_linear_1_168" x1="19.661" y1="22.1796" x2="37.5969" y2="38.4849" gradientUnits="userSpaceOnUse">
<stop stop-color="#665DCD"/>
<stop offset="0.447624" stop-color="#5FA4E6"/>
<stop offset="1" stop-color="#D2AB67"/>
</linearGradient>
<clipPath id="clip0_1_168">
<rect width="58" height="58" fill="white" transform="matrix(-1 0 0 1 58 0)"/>
</clipPath>
</defs>
</svg>
